<svg width="257" height="187" viewBox="0 0 257 187" fill="none" xmlns="http://www.w3.org/2000/svg">
<path d="M120.897 83.736C118.356 84.8483 115.979 86.1657 113.888 87.6304C111.652 89.1973 109.778 90.9044 108.381 92.6587C106.985 94.4111 106.078 96.1943 105.749 97.9083C105.418 99.6313 105.679 101.245 106.541 102.634C107.399 104.015 108.809 105.107 110.646 105.871C112.483 106.635 114.729 107.067 117.249 107.157C119.771 107.246 122.533 106.992 125.375 106.413C128.081 105.861 130.815 105.021 133.439 103.942L157.595 142.86C143.918 148.595 129.613 153.029 115.476 155.911C101.152 158.83 87.2878 160.1 74.6752 159.651C62.0608 159.202 50.9598 157.044 41.997 153.315C33.0345 149.585 26.4059 144.367 22.4436 137.983C18.4856 131.606 17.2406 124.152 18.803 116.02C20.3672 107.88 24.7164 99.2152 31.639 90.5242C38.5602 81.8351 47.9044 73.3069 59.1451 65.4313C70.2782 57.631 83.049 50.6278 96.7401 44.8152L120.897 83.736Z" fill="#265070" stroke="#265070"/>
<path d="M84.89 61.0346C67.3546 70.747 51.4227 82.7668 43.0886 94.8562C34.7094 107.011 30.5015 118.22 35.154 127.948C37.4816 132.814 42.4192 137.031 48.669 140.377C54.9294 143.729 62.563 146.237 70.3705 147.656C85.8206 150.462 104.95 149.327 124.82 144.458L124.339 154.086C100.185 160.057 76.9755 161.447 58.3127 158.057C39.544 154.648 26.5319 146.621 21.1429 135.353C15.762 124.102 18.205 110.079 28.3079 95.4236C38.3637 80.8367 55.3967 66.5271 76.7816 54.7364L84.89 61.0346Z" fill="white" stroke="#265070"/>
<mask id="path-3-inside-1_8_30" fill="white">
<path d="M98.0462 43.5849C126.057 31.7548 156.155 25.6195 181.719 26.5286C207.282 27.4378 226.217 35.3171 234.358 48.433C242.498 61.5489 239.179 78.8272 225.128 96.4667C211.078 114.106 187.448 130.662 159.437 142.492L134.656 102.569C140.054 100.289 144.608 97.0985 147.315 93.6992C150.023 90.3 150.663 86.9704 149.094 84.4429C147.525 81.9155 143.876 80.3971 138.95 80.2219C134.024 80.0467 128.224 81.229 122.826 83.5087L98.0462 43.5849Z"/>
</mask>
<path d="M98.0462 43.5849C126.057 31.7548 156.155 25.6195 181.719 26.5286C207.282 27.4378 226.217 35.3171 234.358 48.433C242.498 61.5489 239.179 78.8272 225.128 96.4667C211.078 114.106 187.448 130.662 159.437 142.492L134.656 102.569C140.054 100.289 144.608 97.0985 147.315 93.6992C150.023 90.3 150.663 86.9704 149.094 84.4429C147.525 81.9155 143.876 80.3971 138.95 80.2219C134.024 80.0467 128.224 81.229 122.826 83.5087L98.0462 43.5849Z" fill="#265070" stroke="#265070" stroke-width="2" mask="url(#path-3-inside-1_8_30)"/>
<mask id="path-4-inside-2_8_30" fill="white">
<path d="M225.327 38.8419C238.542 48.5694 242.159 63.0429 235.461 79.3898L219.58 81.4019C225.282 67.487 222.203 55.1669 210.954 46.8867L225.327 38.8419Z"/>
</mask>
<path d="M225.327 38.8419C238.542 48.5694 242.159 63.0429 235.461 79.3898L219.58 81.4019C225.282 67.487 222.203 55.1669 210.954 46.8867L225.327 38.8419Z" fill="white" stroke="#265070" stroke-width="2" mask="url(#path-4-inside-2_8_30)"/>
</svg>
